<svg width="32" height="33" viewBox="0 0 32 33" fill="none" xmlns="http://www.w3.org/2000/svg">
<path d="M16 3.896C11.0312 3.896 7 7.73287 7 12.4585C7 17.896 13 26.5129 15.2031 29.4891C15.2946 29.6148 15.4144 29.717 15.5529 29.7875C15.6914 29.858 15.8446 29.8947 16 29.8947C16.1554 29.8947 16.3086 29.858 16.4471 29.7875C16.5856 29.717 16.7054 29.6148 16.7969 29.4891C19 26.5141 25 17.9004 25 12.4585C25 7.73287 20.9688 3.896 16 3.896Z" stroke="#212529" stroke-width="1.125" stroke-linecap="round" stroke-linejoin="round"/>
<path d="M16 15.896C17.6569 15.896 19 14.5529 19 12.896C19 11.2391 17.6569 9.896 16 9.896C14.3431 9.896 13 11.2391 13 12.896C13 14.5529 14.3431 15.896 16 15.896Z" stroke="#212529" stroke-width="1.125" stroke-linecap="round" stroke-linejoin="round"/>
</svg>
