<svg width="20" height="21" viewBox="0 0 20 21" fill="none" xmlns="http://www.w3.org/2000/svg">
<path fill-rule="evenodd" clip-rule="evenodd" d="M8.38123 15.2267C8.24891 15.3401 8.08689 15.4132 7.91433 15.4374C7.74176 15.4617 7.56587 15.436 7.40745 15.3634C7.24902 15.2908 7.11469 15.1744 7.02033 15.0279C6.92598 14.8814 6.87554 14.7109 6.87498 14.5367L6.87498 6.35919C6.87554 6.18493 6.92597 6.01448 7.02033 5.86798C7.11469 5.72148 7.24902 5.60506 7.40745 5.53249C7.56587 5.45992 7.74176 5.43423 7.91433 5.45845C8.08689 5.48267 8.24891 5.5558 8.38123 5.66919L12.7675 9.44794C12.9035 9.56524 13.0127 9.71048 13.0875 9.87377C13.1624 10.0371 13.2012 10.2146 13.2012 10.3942L13.2012 10.4992C13.2012 10.6788 13.1624 10.8563 13.0875 11.0196C13.0127 11.1829 12.9035 11.3281 12.7675 11.4454L8.38123 15.2267Z" fill="#6A9A47"/>
</svg>
