<svg width="32" height="33" viewBox="0 0 32 33" fill="none" xmlns="http://www.w3.org/2000/svg">
<path d="M9.66675 12.5C9.66675 12.2348 9.7721 11.9804 9.95964 11.7929C10.1472 11.6054 10.4015 11.5 10.6667 11.5H14.6667C14.932 11.5 15.1863 11.6054 15.3739 11.7929C15.5614 11.9804 15.6667 12.2348 15.6667 12.5C15.6667 12.7652 15.5614 13.0196 15.3739 13.2071C15.1863 13.3946 14.932 13.5 14.6667 13.5H10.6667C10.4015 13.5 10.1472 13.3946 9.95964 13.2071C9.7721 13.0196 9.66675 12.7652 9.66675 12.5Z" fill="#212529"/>
<path fill-rule="evenodd" clip-rule="evenodd" d="M1.71864 4.18399C1.80234 3.93243 1.9825 3.72441 2.21953 3.60565C2.45655 3.48688 2.73103 3.4671 2.98264 3.55065L3.38931 3.68665C4.22397 3.96532 4.92931 4.19999 5.48531 4.45865C6.07464 4.73332 6.58664 5.07199 6.97464 5.61199C7.36264 6.14932 7.52397 6.74265 7.59731 7.38932L7.60931 7.49999H22.0146C23.316 7.49999 24.404 7.49999 25.2373 7.62265C26.1053 7.75199 26.944 8.04665 27.472 8.84932C28 9.64932 27.9413 10.536 27.7173 11.3853C27.504 12.1987 27.0746 13.1987 26.5613 14.396L25.9386 15.848C25.704 16.3973 25.496 16.8813 25.2813 17.264C25.048 17.6773 24.764 18.0533 24.3333 18.3373C23.9026 18.6213 23.444 18.7347 22.972 18.7867C22.5346 18.8333 22.0093 18.8333 21.412 18.8333H8.20531C8.30397 19.012 8.41731 19.1587 8.54531 19.288C8.91464 19.6573 9.43331 19.8973 10.412 20.0293C11.4186 20.164 12.7533 20.1667 14.6666 20.1667H25.3333C25.5985 20.1667 25.8529 20.272 26.0404 20.4595C26.2279 20.6471 26.3333 20.9014 26.3333 21.1667C26.3333 21.4319 26.2279 21.6862 26.0404 21.8738C25.8529 22.0613 25.5985 22.1667 25.3333 22.1667H14.5933C12.7706 22.1667 11.3 22.1667 10.144 22.012C8.94397 21.8493 7.93331 21.5053 7.13064 20.7027C6.32797 19.9 5.98397 18.8893 5.82264 17.6893C5.66664 16.5333 5.66664 15.0627 5.66664 13.24V9.67732C5.66664 8.72665 5.66664 8.09732 5.61064 7.61599C5.55731 7.15999 5.46797 6.94132 5.35197 6.78132C5.23731 6.62132 5.05731 6.46532 4.64131 6.27199C4.20131 6.06799 3.60531 5.86665 2.70397 5.56532L2.35064 5.44932C2.2259 5.40775 2.11057 5.342 2.01128 5.25581C1.91198 5.16963 1.83065 5.06471 1.77194 4.94706C1.71324 4.8294 1.67832 4.70133 1.66917 4.57016C1.66002 4.439 1.67683 4.30865 1.71864 4.18399ZM7.74264 16.832H21.3626C22.024 16.832 22.4413 16.8307 22.7573 16.796C23.0493 16.7653 23.1613 16.7133 23.232 16.6667C23.3026 16.62 23.3946 16.5373 23.5386 16.2813C23.6946 16.004 23.8586 15.6213 24.12 15.0147L24.692 13.6813C25.244 12.3907 25.612 11.5267 25.784 10.8733C25.952 10.2387 25.8666 10.0467 25.8026 9.94799C25.7373 9.85065 25.5933 9.69599 24.944 9.60132C24.276 9.50132 23.3373 9.49865 21.9346 9.49865H7.66664V13.1667C7.66664 14.7293 7.66664 15.9053 7.74131 16.8333M9.99997 29.5C9.20432 29.5 8.44126 29.1839 7.87865 28.6213C7.31604 28.0587 6.99997 27.2956 6.99997 26.5C6.99997 25.7043 7.31604 24.9413 7.87865 24.3787C8.44126 23.8161 9.20432 23.5 9.99997 23.5C10.7956 23.5 11.5587 23.8161 12.1213 24.3787C12.6839 24.9413 13 25.7043 13 26.5C13 27.2956 12.6839 28.0587 12.1213 28.6213C11.5587 29.1839 10.7956 29.5 9.99997 29.5ZM8.99997 26.5C8.99997 26.7652 9.10533 27.0196 9.29287 27.2071C9.4804 27.3946 9.73476 27.5 9.99997 27.5C10.2652 27.5 10.5195 27.3946 10.7071 27.2071C10.8946 27.0196 11 26.7652 11 26.5C11 26.2348 10.8946 25.9804 10.7071 25.7929C10.5195 25.6053 10.2652 25.5 9.99997 25.5C9.73476 25.5 9.4804 25.6053 9.29287 25.7929C9.10533 25.9804 8.99997 26.2348 8.99997 26.5ZM19 26.5C19 26.894 19.0776 27.2841 19.2283 27.648C19.3791 28.012 19.6001 28.3427 19.8787 28.6213C20.1572 28.8999 20.4879 29.1209 20.8519 29.2716C21.2159 29.4224 21.606 29.5 22 29.5C22.3939 29.5 22.784 29.4224 23.148 29.2716C23.512 29.1209 23.8427 28.8999 24.1213 28.6213C24.3999 28.3427 24.6208 28.012 24.7716 27.648C24.9224 27.2841 25 26.894 25 26.5C25 25.7043 24.6839 24.9413 24.1213 24.3787C23.5587 23.8161 22.7956 23.5 22 23.5C21.2043 23.5 20.4413 23.8161 19.8787 24.3787C19.316 24.9413 19 25.7043 19 26.5ZM22 27.5C21.7348 27.5 21.4804 27.3946 21.2929 27.2071C21.1053 27.0196 21 26.7652 21 26.5C21 26.2348 21.1053 25.9804 21.2929 25.7929C21.4804 25.6053 21.7348 25.5 22 25.5C22.2652 25.5 22.5195 25.6053 22.7071 25.7929C22.8946 25.9804 23 26.2348 23 26.5C23 26.7652 22.8946 27.0196 22.7071 27.2071C22.5195 27.3946 22.2652 27.5 22 27.5Z" fill="#212529"/>
</svg>
