<svg width="32" height="33" viewBox="0 0 32 33" fill="none" xmlns="http://www.w3.org/2000/svg">
<path d="M6.66667 7.56274H24C25.0609 7.56274 26.0783 7.98417 26.8284 8.73432C27.5786 9.48446 28 10.5019 28 11.5627V23.5627C28 24.6236 27.5786 25.641 26.8284 26.3912C26.0783 27.1413 25.0609 27.5627 24 27.5627H6.66667C5.6058 27.5627 4.58839 27.1413 3.83824 26.3912C3.08809 25.641 2.66667 24.6236 2.66667 23.5627V11.5627C2.66667 10.5019 3.08809 9.48446 3.83824 8.73432C4.58839 7.98417 5.6058 7.56274 6.66667 7.56274ZM6.66667 8.89608C6 8.89608 5.41333 9.12274 4.96 9.52274L15.3333 16.2294L25.7067 9.52274C25.2533 9.12274 24.6667 8.89608 24 8.89608H6.66667ZM15.3333 17.8427L4.17333 10.6027C4.06667 10.8961 4 11.2294 4 11.5627V23.5627C4 24.27 4.28095 24.9483 4.78105 25.4484C5.28115 25.9485 5.95942 26.2294 6.66667 26.2294H24C24.7072 26.2294 25.3855 25.9485 25.8856 25.4484C26.3857 24.9483 26.6667 24.27 26.6667 23.5627V11.5627C26.6667 11.2294 26.6 10.8961 26.4933 10.6027L15.3333 17.8427Z" fill="#212529"/>
</svg>
