<svg width="32" height="33" viewBox="0 0 32 33" fill="none" xmlns="http://www.w3.org/2000/svg">
<path fill-rule="evenodd" clip-rule="evenodd" d="M16 2.16669C14.3203 2.16669 12.7094 2.83395 11.5217 4.02168C10.3339 5.20941 9.66666 6.82032 9.66666 8.50002C9.66666 10.1797 10.3339 11.7906 11.5217 12.9784C12.7094 14.1661 14.3203 14.8334 16 14.8334C17.6797 14.8334 19.2906 14.1661 20.4783 12.9784C21.6661 11.7906 22.3333 10.1797 22.3333 8.50002C22.3333 6.82032 21.6661 5.20941 20.4783 4.02168C19.2906 2.83395 17.6797 2.16669 16 2.16669ZM11.6667 8.50002C11.6667 7.35075 12.1232 6.24855 12.9359 5.43589C13.7485 4.62323 14.8507 4.16669 16 4.16669C17.1493 4.16669 18.2515 4.62323 19.0641 5.43589C19.8768 6.24855 20.3333 7.35075 20.3333 8.50002C20.3333 9.64929 19.8768 10.7515 19.0641 11.5641C18.2515 12.3768 17.1493 12.8334 16 12.8334C14.8507 12.8334 13.7485 12.3768 12.9359 11.5641C12.1232 10.7515 11.6667 9.64929 11.6667 8.50002ZM16 16.8334C12.916 16.8334 10.0733 17.5347 7.96799 18.7187C5.89333 19.8867 4.33333 21.6547 4.33333 23.8334V23.9694C4.33199 25.5187 4.33066 27.4627 6.03599 28.852C6.87466 29.5347 8.04933 30.0214 9.63599 30.3414C11.2253 30.664 13.2987 30.8334 16 30.8334C18.7013 30.8334 20.7733 30.664 22.3653 30.3414C23.952 30.0214 25.1253 29.5347 25.9653 28.852C27.6707 27.4627 27.668 25.5187 27.6667 23.9694V23.8334C27.6667 21.6547 26.1067 19.8867 24.0333 18.7187C21.9267 17.5347 19.0853 16.8334 16 16.8334ZM6.33333 23.8334C6.33333 22.6987 7.16266 21.4667 8.94799 20.4627C10.7027 19.476 13.1933 18.8334 16.0013 18.8334C18.8067 18.8334 21.2973 19.476 23.052 20.4627C24.8387 21.4667 25.6667 22.6987 25.6667 23.8334C25.6667 25.5774 25.6133 26.5587 24.7013 27.3C24.208 27.7027 23.3813 28.096 21.968 28.3814C20.5587 28.6667 18.632 28.8334 16 28.8334C13.368 28.8334 11.44 28.6667 10.032 28.3814C8.61866 28.096 7.79199 27.7027 7.29866 27.3014C6.38666 26.5587 6.33333 25.5774 6.33333 23.8334Z" fill="#212529"/>
</svg>
